<?xml version="1.0" encoding="UTF-8"?>
<svg id="Layer_1" xmlns="http://www.w3.org/2000/svg" version="1.1" viewBox="0 0 504 360">
  <!-- Generator: Adobe Illustrator 29.3.1, SVG Export Plug-In . SVG Version: 2.1.0 Build 151)  -->
  <style>
    path {
      fill: #f8f8f8;
    }
  </style>
  <g>
    <path fill="#ffffff" d="M241.3,170.5c1.3-.6,2.4-1.6,3.6-2.2,16.9-8.6,30.6.9,20.1,19.9-10.1,18.1-30.3,21.6-48.8,17.2-2.3-.6-6.6-1.1-5-4.6l22.9-46.4c.9-1.2,2.6-1.4,3.9-1.5,1.9-.1,8.4-.2,9.8.4s.6,2,.3,3c-.6,1.7-7.3,13.5-6.8,14.1h0ZM228.7,196.5c9.1,1.6,17.3-1.4,21.9-9.9,4.9-9.2-.9-11.4-8.3-7.2-5.6,3.2-10.8,9.9-13.3,16-.1.4-.3.7-.2,1.1h0Z"/>
    <path fill="#ffffff" d="M161,200c-4.1,3.4-9.5,6.5-14.8,7-15.2,1.5-16.7-10.9-10.6-22.4,9.3-17.4,29-21.8,46.8-18.1,2.5.5,8.4,1.2,6.5,5l-11.5,23.4c-1,5,5.1.5,3.1,6.1-.6,1.7-1.8,4.4-3.6,5.1-1.6.6-6.1,1-7.9.9-4-.2-8.2-2.3-8-7h0ZM171.7,176.1c-8.6-2.3-17.4,1.8-21.6,9.9-3.7,7.2-.6,11.3,6.8,7.9,6.9-3.1,11.6-11.2,14.7-17.9h.1Z"/>
    <path fill="#ffffff" d="M301.3,165.1c14.1-1.1,26.4,5.7,19.9,22.1-3.2,8.3-11.3,14.7-19.2,17.7-13.2,5-37.1,4-31.8-16.9,3.4-13.5,18.5-22,31.1-22.9h0ZM300.2,175c-6.6.2-13.3,7.2-14.8,13.6-1.7,7.4,3.3,10.1,9.7,8.3s14.5-12.1,11.5-18.8c-1-2.4-4.1-3.1-6.5-3.1h0Z"/>
    <path fill="#ffffff" d="M339.1,191.5c-.4,6,9,5.1,12.8,4.7,2.8-.3,6-1.5,8.5-1.7.4,0,.8-.1,1.2.1,1.1.5,1.6,6.9,1.4,8.1-.4,1.7-5.3,2.7-6.9,3-11.7,2.5-35.4,3.9-31.4-15.3,2.7-13.1,17.1-24.6,29.8-25.4,9.5-.6,18.5,4,17,15.2-1,7-10.5,8.1-16,9.1s-10.9,1.7-16.4,2.2h0ZM342.5,182.5c2.6-.2,5.1-.5,7.7-1,2.8-.5,9.9-1.3,8.6-5.8-.9-3-6.8-1.6-8.8-.6-2.9,1.4-6.1,4.4-7.4,7.4h-.1Z"/>
    <path fill="#ffffff" d="M211.1,153.1c1.7-.2,9.6-.4,10.8.4.4.2.6.9.5,1.4l-19.3,39.9c-1.3,5.1,4.7,1,3.2,5.9-.5,1.7-2,4.8-3.7,5.5-2.3.9-7.9,1.1-10.4.5-5.9-1.4-6.4-6.6-4.3-11.6,7-12.2,11.9-27.1,19-39,1.3-2.2,1.6-2.6,4.2-2.9h0Z"/>
    <path fill="#ffffff" d="M313.8,141.3s14,0,17.1-3.1,3.1-17.1,3.1-17.1c0,0,0,14,3.1,17.1s17.1,3.1,17.1,3.1c0,0-14.9.9-17.1,3.1-2.2,2.2-3.1,17.1-3.1,17.1,0,0-.5-14.4-3.1-17.1-2.6-2.6-17.1-3.1-17.1-3.1Z"/>
    <path fill="#ffffff" d="M145.6,233.8s14,0,17.1-3.1,3.1-17.1,3.1-17.1c0,0,0,14,3.1,17.1s17.1,3.1,17.1,3.1c0,0-14.9.9-17.1,3.1s-3.1,17.1-3.1,17.1c0,0-.5-14.4-3.1-17.1-2.6-2.6-17.1-3.1-17.1-3.1Z"/>
  </g>
  <g>
    <path fill="#ffffff" d="M83.8,194.1c-2-31.7,80.4-59.4,184-61.8,11.7-.3,23.2-.2,34.4.1-15.8-1.6-32.4-2.6-49.6-2.9-103.8-1.7-187,23.4-185.9,56,.5,14.6,17.7,30.4,46.1,39-17.8-9-28.4-19.6-29.1-30.5Z"/>
    <path fill="#ffffff" d="M420.2,180.2c2,31.7-80.4,59.4-184,61.8-11.7.3-23.2.2-34.4-.1,15.8,1.6,32.4,2.6,49.6,2.9,103.8,1.7,187-23.4,185.9-56-.5-14.6-15.8-31.3-46.1-39,17.8,9,28.4,19.6,29.1,30.5Z"/>
  </g>
</svg>